<svg width="1440" height="846" viewBox="0 0 1440 846" fill="none" xmlns="http://www.w3.org/2000/svg">
<path d="M0 846H1440V0H146C65.3664 0 0 65.3665 0 146V846Z" fill="#6070FF"/>
<rect x="1211.59" y="121.279" width="107.204" height="24.699" transform="rotate(-23.1765 1211.59 121.279)" fill="#7F8CFF"/>
<path d="M1357.7 151.842C1352.73 143.018 1345.75 135.488 1337.32 129.863C1328.9 124.238 1319.27 120.675 1309.22 119.463C1299.16 118.252 1288.96 119.425 1279.45 122.888C1269.93 126.351 1261.36 132.007 1254.43 139.397C1247.51 146.788 1242.42 155.705 1239.58 165.427C1236.75 175.15 1236.24 185.404 1238.1 195.359C1239.96 205.315 1244.14 214.692 1250.3 222.731C1256.46 230.77 1264.43 237.246 1273.56 241.633L1285.58 216.618C1280.38 214.119 1275.84 210.43 1272.33 205.85C1268.82 201.27 1266.44 195.928 1265.38 190.256C1264.32 184.585 1264.61 178.743 1266.23 173.204C1267.84 167.665 1270.74 162.585 1274.69 158.375C1278.63 154.164 1283.51 150.942 1288.94 148.969C1294.36 146.996 1300.17 146.328 1305.9 147.018C1311.63 147.709 1317.11 149.738 1321.91 152.943C1326.71 156.148 1330.68 160.437 1333.51 165.464L1357.7 151.842Z" fill="white"/>
<circle cx="483.5" cy="127.5" r="13.5" fill="#7F8CFF"/>
<rect width="117.53" height="21.0255" transform="matrix(0.801365 0.598176 0.598176 -0.801365 83.8574 355.606)" fill="#7F8CFF"/>
<circle cx="109.198" cy="407.03" r="24" transform="rotate(48.9435 109.198 407.03)" fill="white"/>
<rect x="337" y="763.347" width="55.6001" height="9.94658" transform="rotate(-23.6989 337 763.347)" fill="white"/>
<path d="M366.13 762.682C363.986 767.704 363.925 773.372 365.959 778.439C367.994 783.506 371.959 787.558 376.981 789.702C382.002 791.846 387.67 791.907 392.737 789.872C397.805 787.837 401.856 783.873 404 778.851L366.13 762.682Z" fill="#7F8CFF"/>
<circle cx="1166.5" cy="558.5" r="37.5" fill="#7F8CFF"/>
</svg>
