<svg width="1440" height="1514" viewBox="0 0 1440 1514" fill="none" xmlns="http://www.w3.org/2000/svg">
<path d="M1440 924H0V-5.24521e-06H1294C1374.63 -5.24521e-06 1440 65.3664 1440 146V924Z" fill="white"/>
<path d="M0 1514H1440V668H146C65.3664 668 0 733.366 0 814V1514Z" fill="#6070FF"/>
<rect x="1211.59" y="789.279" width="107.204" height="24.699" transform="rotate(-23.1765 1211.59 789.279)" fill="#7F8CFF"/>
<path d="M1357.7 819.842C1352.73 811.018 1345.75 803.488 1337.32 797.863C1328.9 792.238 1319.27 788.675 1309.22 787.463C1299.16 786.252 1288.96 787.425 1279.45 790.888C1269.93 794.351 1261.36 800.007 1254.43 807.397C1247.51 814.788 1242.42 823.705 1239.58 833.427C1236.75 843.15 1236.24 853.404 1238.1 863.359C1239.96 873.315 1244.14 882.692 1250.3 890.731C1256.46 898.77 1264.43 905.246 1273.56 909.633L1285.58 884.618C1280.38 882.119 1275.84 878.43 1272.33 873.85C1268.82 869.27 1266.44 863.928 1265.38 858.256C1264.32 852.585 1264.61 846.743 1266.23 841.204C1267.84 835.665 1270.74 830.585 1274.69 826.375C1278.63 822.164 1283.51 818.942 1288.94 816.969C1294.36 814.996 1300.17 814.328 1305.9 815.018C1311.63 815.709 1317.11 817.738 1321.91 820.943C1326.71 824.148 1330.68 828.437 1333.51 833.464L1357.7 819.842Z" fill="white"/>
<circle cx="483.5" cy="795.5" r="13.5" fill="#7F8CFF"/>
<rect width="117.53" height="21.0255" transform="matrix(0.801365 0.598176 0.598176 -0.801365 83.8574 1023.61)" fill="#7F8CFF"/>
<circle cx="109.198" cy="1075.03" r="24" transform="rotate(48.9435 109.198 1075.03)" fill="white"/>
<rect x="337" y="1431.35" width="55.6001" height="9.94658" transform="rotate(-23.6989 337 1431.35)" fill="white"/>
<path d="M366.13 1430.68C363.986 1435.7 363.925 1441.37 365.959 1446.44C367.994 1451.51 371.959 1455.56 376.981 1457.7C382.002 1459.85 387.67 1459.91 392.737 1457.87C397.805 1455.84 401.856 1451.87 404 1446.85L366.13 1430.68Z" fill="#7F8CFF"/>
<circle cx="1166.5" cy="1226.5" r="37.5" fill="#7F8CFF"/>
</svg>
